<?xml version="1.0" encoding="utf-8"?>
<!-- Generator: Adobe Illustrator 16.0.0, SVG Export Plug-In . SVG Version: 6.00 Build 0)  -->
<!DOCTYPE svg PUBLIC "-//W3C//DTD SVG 1.1//EN" "http://www.w3.org/Graphics/SVG/1.1/DTD/svg11.dtd">
<svg version="1.1" id="Layer_1" xmlns="http://www.w3.org/2000/svg" xmlns:xlink="http://www.w3.org/1999/xlink" x="0px" y="0px"
	 width="35px" height="35px" viewBox="0 0 35 35" style="enable-background:new 0 0 35 35;" xml:space="preserve">
<style type="text/css">
<![CDATA[
	.st0{opacity:0.2;}
	.st1{opacity:0.4;fill:none;stroke:#000000;stroke-width:0.4;stroke-miterlimit:10;}
	.st2{fill:none;stroke:#000000;stroke-width:0.4;stroke-miterlimit:10;}
]]>
</style>
<g>
	<path class="st1" d="M25.735,30.817c-2.261-1.856-4.699-3.091-5.202-3.338c-0.057-0.029-0.093-0.085-0.093-0.148v-3.522
		c0.446-0.298,0.737-0.8,0.737-1.368v-3.655c0-1.815-1.473-3.289-3.288-3.289H17.5h-0.39c-1.814,0-3.288,1.474-3.288,3.289v3.649
		c0,0.574,0.29,1.076,0.737,1.367v3.521c0,0.063-0.036,0.121-0.092,0.148c-0.496,0.242-2.934,1.475-5.201,3.339
		c-0.411,0.332-0.645,0.836-0.645,1.367v2.501H17.5h8.88v-2.501C26.38,31.653,26.146,31.15,25.735,30.817z"/>
	<g class="st0">
		<path class="st2" d="M34.267,31.392c-1.928-1.58-4.004-2.629-4.422-2.835c-0.05-0.021-0.077-0.07-0.077-0.127v-2.998
			c0.375-0.247,0.623-0.681,0.623-1.169v-3.111c0-1.546-1.255-2.8-2.799-2.8h-0.334h-0.333c-1.544,0-2.799,1.254-2.799,2.8v3.111
			c0,0.488,0.248,0.914,0.624,1.169v2.998c0,0.021-0.008,0.035-0.008,0.049c0.589,0.404,1.205,0.858,1.808,1.354
			c0.702,0.581,1.105,1.431,1.105,2.352v2.502h7.157v-2.133C34.813,32.107,34.613,31.675,34.267,31.392z"/>
		<path class="st2" d="M10.25,28.43v-2.998c0.375-0.247,0.624-0.681,0.624-1.169v-3.111c0-1.546-1.254-2.8-2.799-2.8H7.742H7.409
			c-1.545,0-2.799,1.254-2.799,2.8v3.111c0,0.488,0.248,0.914,0.624,1.169v2.998c0,0.049-0.028,0.099-0.078,0.127
			c-0.425,0.206-2.502,1.255-4.422,2.835c-0.347,0.283-0.546,0.716-0.546,1.162v2.133h7.157v-2.502c0-0.914,0.404-1.771,1.106-2.352
			c0.602-0.496,1.219-0.95,1.807-1.354C10.258,28.465,10.25,28.45,10.25,28.43z"/>
	</g>
</g>
</svg>
