<?xml version="1.0" encoding="utf-8"?>
<!-- Generator: Adobe Illustrator 16.0.0, SVG Export Plug-In . SVG Version: 6.00 Build 0)  -->
<!DOCTYPE svg PUBLIC "-//W3C//DTD SVG 1.1//EN" "http://www.w3.org/Graphics/SVG/1.1/DTD/svg11.dtd">
<svg version="1.1" id="Layer_1" xmlns="http://www.w3.org/2000/svg" xmlns:xlink="http://www.w3.org/1999/xlink" x="0px" y="0px"
	 width="35px" height="35px" viewBox="0 0 35 35" enable-background="new 0 0 35 35" xml:space="preserve">
<path fill="none" stroke="#333333" stroke-width="0.4" stroke-miterlimit="10" enable-background="new    " d="M25.734,30.816
	c-2.26-1.855-4.698-3.09-5.201-3.338c-0.057-0.028-0.094-0.084-0.094-0.147v-3.522c0.447-0.298,0.738-0.8,0.738-1.367v-3.655
	c0-1.815-1.474-3.289-3.289-3.289H17.5h-0.39c-1.814,0-3.288,1.474-3.288,3.289v3.649c0,0.573,0.29,1.075,0.737,1.366v3.521
	c0,0.063-0.036,0.12-0.092,0.147c-0.496,0.242-2.934,1.475-5.201,3.34c-0.411,0.332-0.645,0.836-0.645,1.366v2.501H17.5h8.88v-2.501
	C26.38,31.652,26.146,31.15,25.734,30.816z"/>
<g>
	<path fill="none" stroke="#333333" stroke-width="0.4" stroke-miterlimit="10" d="M34.268,31.393
		c-1.929-1.58-4.004-2.629-4.422-2.836c-0.051-0.021-0.078-0.07-0.078-0.127v-2.998c0.375-0.246,0.623-0.681,0.623-1.168v-3.111
		c0-1.547-1.254-2.801-2.799-2.801h-0.334h-0.333c-1.544,0-2.799,1.254-2.799,2.801v3.111c0,0.487,0.248,0.913,0.624,1.168v2.998
		c0,0.021-0.008,0.035-0.008,0.049c0.589,0.404,1.205,0.858,1.808,1.354c0.702,0.581,1.104,1.431,1.104,2.353v2.502h7.158v-2.133
		C34.813,32.107,34.613,31.675,34.268,31.393z"/>
	<path fill="none" stroke="#333333" stroke-width="0.4" stroke-miterlimit="10" d="M10.25,28.43v-2.998
		c0.375-0.246,0.624-0.681,0.624-1.168v-3.111c0-1.547-1.254-2.801-2.799-2.801H7.742H7.409c-1.545,0-2.799,1.254-2.799,2.801v3.111
		c0,0.487,0.248,0.913,0.624,1.168v2.998c0,0.049-0.028,0.1-0.078,0.127c-0.425,0.207-2.502,1.256-4.422,2.836
		c-0.347,0.282-0.546,0.715-0.546,1.162v2.133h7.157v-2.502c0-0.914,0.404-1.771,1.106-2.353c0.602-0.496,1.219-0.95,1.807-1.354
		C10.258,28.465,10.25,28.45,10.25,28.43z"/>
</g>
</svg>
