<?xml version="1.0" encoding="utf-8"?>
<!-- Generator: Adobe Illustrator 16.0.0, SVG Export Plug-In . SVG Version: 6.00 Build 0)  -->
<!DOCTYPE svg PUBLIC "-//W3C//DTD SVG 1.1//EN" "http://www.w3.org/Graphics/SVG/1.1/DTD/svg11.dtd">
<svg version="1.1" id="Layer_1" xmlns="http://www.w3.org/2000/svg" xmlns:xlink="http://www.w3.org/1999/xlink" x="0px" y="0px"
	 width="35px" height="35px" viewBox="0 0 35 35" style="enable-background:new 0 0 35 35;" xml:space="preserve">
<style type="text/css">
<![CDATA[
	.st0{opacity:0.4;}
	.st1{fill:none;stroke:#000000;stroke-width:0.4;stroke-miterlimit:10;}
]]>
</style>
<g class="st0">
	<circle class="st1" cx="8.246" cy="8.354" r="2.395"/>
	<path class="st1" d="M10.639,20.274v-5.385c2.143-0.07,4.214-0.578,6.154-1.577c1.287-0.663,0.151-2.6-1.134-1.938
		c-1.664,0.857-3.43,1.236-5.258,1.274c-0.31-0.54-0.89-0.903-1.557-0.903H7.648c-0.993,0-1.796,0.803-1.796,1.795v6.733
		c0,0.461,0.175,0.877,0.459,1.195c0.259,3.03,0.151,6.047-1.527,8.713c-0.774,1.229,1.169,2.354,1.938,1.133
		c1.777-2.823,2.082-6.022,1.877-9.246h0.069c0.717,2.267,1.027,4.586,1.05,6.983c0.014,1.446,2.258,1.448,2.245,0
		c-0.027-2.844-0.421-5.64-1.383-8.32C10.617,20.585,10.639,20.434,10.639,20.274z"/>
	<polygon class="st1" points="0.252,0.482 0.252,17.356 5.174,17.356 5.174,16.032 1.575,16.032 1.575,1.805 33.426,1.805 
		33.426,16.032 11.285,16.032 11.285,17.356 34.748,17.356 34.748,0.482 	"/>
	<rect x="11.285" y="18.238" class="st1" width="23.463" height="1.324"/>
	<rect x="0.252" y="18.238" class="st1" width="4.922" height="1.324"/>
	<path class="st1" d="M19.837,8.329c1.586,2.145,3.227,4.363,6.236,4.621l0.058-0.659c-2.715-0.232-4.262-2.329-5.761-4.355
		c-2.106-2.85-4.284-5.796-9.554-3.137l0.298,0.59C15.886,2.98,17.717,5.459,19.837,8.329z"/>
</g>
</svg>
