<?xml version="1.0" encoding="utf-8"?>
<!-- Generator: Adobe Illustrator 16.0.0, SVG Export Plug-In . SVG Version: 6.00 Build 0)  -->
<!DOCTYPE svg PUBLIC "-//W3C//DTD SVG 1.1//EN" "http://www.w3.org/Graphics/SVG/1.1/DTD/svg11.dtd">
<svg version="1.1" id="Layer_1" xmlns="http://www.w3.org/2000/svg" xmlns:xlink="http://www.w3.org/1999/xlink" x="0px" y="0px"
	 width="35px" height="35px" viewBox="0 0 35 35" enable-background="new 0 0 35 35" xml:space="preserve">
<ellipse fill="none" stroke="#333333" stroke-width="0.4" stroke-miterlimit="10" cx="8.246" cy="9.031" rx="2.395" ry="2.621"/>
<path fill="none" stroke="#333333" stroke-width="0.4" stroke-miterlimit="10" d="M10.639,22.072V16.18
	c2.143-0.077,4.214-0.632,6.154-1.725c1.287-0.726,0.151-2.845-1.134-2.121c-1.664,0.938-3.43,1.352-5.258,1.394
	c-0.31-0.591-0.89-0.988-1.557-0.988H7.648c-0.993,0-1.796,0.878-1.796,1.964v7.366c0,0.506,0.175,0.961,0.459,1.309
	c0.259,3.314,0.151,6.617-1.527,9.534c-0.774,1.345,1.169,2.575,1.938,1.239c1.777-3.09,2.082-6.59,1.877-10.117h0.069
	c0.717,2.48,1.027,5.02,1.05,7.641c0.014,1.582,2.258,1.585,2.245,0c-0.027-3.111-0.421-6.171-1.383-9.104
	C10.617,22.413,10.639,22.248,10.639,22.072z"/>
<polygon fill="none" stroke="#333333" stroke-width="0.4" stroke-miterlimit="10" points="0.252,0.417 0.252,18.88 5.174,18.88 
	5.174,17.432 1.575,17.432 1.575,1.865 33.426,1.865 33.426,17.432 11.285,17.432 11.285,18.88 34.748,18.88 34.748,0.417 "/>
<rect x="11.285" y="19.846" fill="none" stroke="#333333" stroke-width="0.4" stroke-miterlimit="10" width="23.463" height="1.449"/>
<rect x="0.252" y="19.846" fill="none" stroke="#333333" stroke-width="0.4" stroke-miterlimit="10" width="4.922" height="1.449"/>
<path fill="none" stroke="#333333" stroke-width="0.4" stroke-miterlimit="10" d="M19.837,9.003
	c1.586,2.347,3.228,4.773,6.235,5.056l0.059-0.721c-2.715-0.254-4.262-2.548-5.761-4.765c-2.106-3.119-4.284-6.342-9.554-3.433
	l0.298,0.646C15.886,3.15,17.717,5.863,19.837,9.003z"/>
</svg>
