<?xml version="1.0" encoding="utf-8"?>
<!-- Generator: Adobe Illustrator 16.0.0, SVG Export Plug-In . SVG Version: 6.00 Build 0)  -->
<!DOCTYPE svg PUBLIC "-//W3C//DTD SVG 1.1//EN" "http://www.w3.org/Graphics/SVG/1.1/DTD/svg11.dtd">
<svg version="1.1" id="Layer_1" xmlns="http://www.w3.org/2000/svg" xmlns:xlink="http://www.w3.org/1999/xlink" x="0px" y="0px"
	 width="35px" height="35px" viewBox="0 0 35 35" style="enable-background:new 0 0 35 35;" xml:space="preserve">
<style type="text/css">
<![CDATA[
	.st0{fill:none;stroke:#000000;stroke-width:0.4;}
	.st1{opacity:0.4;}
]]>
</style>
<g class="st1">
	<path class="st0" d="M34.386,18.065L22.799,9.327c-0.31-0.233-0.732-0.233-1.041,0l-1.903,1.436l-1.904-1.436
		c-0.309-0.233-0.735-0.233-1.04,0l-1.858,1.401l-1.858-1.401c-0.309-0.233-0.734-0.233-1.04,0L0.567,18.065
		c-0.216,0.162-0.344,0.419-0.344,0.688v14.711c0,0.478,0.388,0.865,0.865,0.865h4.758h4.85H24.26h4.759h4.849
		c0.479,0,0.867-0.388,0.867-0.865V18.753C34.729,18.484,34.602,18.228,34.386,18.065z M32.998,32.6h-3.119V18.753
		c0-0.269-0.128-0.526-0.346-0.688l-8.245-6.218l0.989-0.746l10.721,8.084V32.6z M25.122,32.6V18.753
		c0-0.269-0.127-0.526-0.346-0.688l-8.289-6.254l0.941-0.709l10.721,8.084V32.6H25.122L25.122,32.6z M14.089,32.6h-2.532h-0.306
		v-6.275h2.834V32.6H14.089z"/>
</g>
</svg>
