<?xml version="1.0" encoding="utf-8"?>
<!-- Generator: Adobe Illustrator 16.0.0, SVG Export Plug-In . SVG Version: 6.00 Build 0)  -->
<!DOCTYPE svg PUBLIC "-//W3C//DTD SVG 1.1//EN" "http://www.w3.org/Graphics/SVG/1.1/DTD/svg11.dtd">
<svg version="1.1" id="Layer_1" xmlns="http://www.w3.org/2000/svg" xmlns:xlink="http://www.w3.org/1999/xlink" x="0px" y="0px"
	 width="35px" height="35px" viewBox="0 0 35 35" enable-background="new 0 0 35 35" xml:space="preserve">
<path fill="none" stroke="#333333" stroke-width="0.4" d="M34.387,18.444L22.799,9.707c-0.311-0.233-0.732-0.233-1.041,0
	l-1.902,1.436l-1.904-1.436c-0.309-0.233-0.735-0.233-1.04,0l-1.858,1.401l-1.858-1.401c-0.309-0.233-0.734-0.233-1.04,0
	L0.567,18.444c-0.216,0.162-0.344,0.42-0.344,0.688v14.711c0,0.478,0.388,0.865,0.865,0.865h4.758h4.85H24.26h4.76h4.849
	c0.479,0,0.866-0.388,0.866-0.865V19.133C34.729,18.864,34.602,18.608,34.387,18.444z M32.998,32.979h-3.119V19.133
	c0-0.269-0.128-0.526-0.346-0.688l-8.245-6.217l0.989-0.746l10.721,8.084V32.979z M25.122,32.979V19.133
	c0-0.269-0.127-0.526-0.347-0.688l-8.289-6.253l0.941-0.709l10.72,8.083v13.414H25.122L25.122,32.979z M14.089,32.979h-2.532h-0.306
	v-6.274h2.834v6.274H14.089z"/>
</svg>
