<?xml version="1.0" encoding="utf-8"?>
<!-- Generator: Adobe Illustrator 16.0.0, SVG Export Plug-In . SVG Version: 6.00 Build 0)  -->
<!DOCTYPE svg PUBLIC "-//W3C//DTD SVG 1.1//EN" "http://www.w3.org/Graphics/SVG/1.1/DTD/svg11.dtd">
<svg version="1.1" id="Layer_1" xmlns="http://www.w3.org/2000/svg" xmlns:xlink="http://www.w3.org/1999/xlink" x="0px" y="0px"
	 width="35px" height="35px" viewBox="0 0 35 35" enable-background="new 0 0 35 35" xml:space="preserve">
<path id="XMLID_49_" fill="none" stroke="#333333" stroke-width="0.4" stroke-miterlimit="10" d="M21.482,30.439v1.008
	c0,0.805-0.59,1.473-1.359,1.588l-0.249,0.916c-0.136,0.498-0.583,0.848-1.103,0.848h-2.467c-0.52,0-0.967-0.35-1.102-0.848
	l-0.242-0.916c-0.775-0.121-1.366-0.783-1.366-1.594v-1.01c0-0.539,0.434-0.976,0.975-0.976h5.938
	C21.049,29.465,21.482,29.898,21.482,30.439z M26.057,16.827c0,2.296-0.912,4.382-2.391,5.909c-1.125,1.166-1.85,2.654-2.091,4.238
	c-0.108,0.684-0.698,1.188-1.396,1.188h-5.285c-0.69,0-1.287-0.498-1.387-1.183c-0.249-1.586-0.981-3.094-2.104-4.252
	c-1.451-1.508-2.354-3.557-2.375-5.811c-0.05-4.736,3.719-8.569,8.456-8.604C22.213,8.279,26.057,12.105,26.057,16.827z
	 M18.503,11.671c0-0.526-0.429-0.96-0.961-0.96c-3.385,0-6.145,2.752-6.145,6.145c0,0.527,0.427,0.96,0.96,0.96
	c0.526,0,0.96-0.427,0.96-0.96c0-2.332,1.899-4.224,4.225-4.224C18.074,12.631,18.503,12.205,18.503,11.671z M17.542,5.52
	c0.526,0,0.961-0.426,0.961-0.96V1.196c0-0.526-0.429-0.96-0.961-0.96c-0.533,0-0.96,0.427-0.96,0.96V4.56
	C16.582,5.093,17.016,5.52,17.542,5.52z M6.241,16.82c0-0.526-0.427-0.96-0.96-0.96H1.917c-0.526,0-0.96,0.426-0.96,0.96
	c0,0.526,0.427,0.96,0.96,0.96h3.364C5.814,17.78,6.241,17.354,6.241,16.82z M33.166,15.86h-3.363c-0.525,0-0.961,0.426-0.961,0.96
	c0,0.526,0.428,0.96,0.961,0.96h3.363c0.527,0,0.961-0.427,0.961-0.96C34.127,16.294,33.699,15.86,33.166,15.86z M8.197,24.813
	l-2.382,2.383c-0.377,0.38-0.377,0.982,0,1.359C6,28.741,6.249,28.832,6.49,28.832c0.242,0,0.491-0.092,0.676-0.277l2.382-2.383
	c0.377-0.377,0.377-0.98,0-1.359C9.178,24.438,8.567,24.438,8.197,24.813z M26.212,9.111c0.24,0,0.489-0.093,0.675-0.277
	l2.383-2.382c0.377-0.377,0.377-0.982,0-1.358c-0.377-0.377-0.981-0.377-1.357,0l-2.383,2.382c-0.379,0.377-0.379,0.982,0,1.359
	C25.721,9.019,25.963,9.111,26.212,9.111z M8.197,8.827c0.185,0.185,0.434,0.277,0.676,0.277c0.242,0,0.491-0.093,0.675-0.277
	c0.377-0.377,0.377-0.981,0-1.358L7.166,5.086c-0.376-0.377-0.981-0.377-1.358,0c-0.376,0.376-0.376,0.981,0,1.358L8.197,8.827z
	 M26.887,24.813c-0.378-0.375-0.98-0.375-1.357,0c-0.379,0.379-0.379,0.982,0,1.359l2.383,2.383
	c0.186,0.187,0.434,0.277,0.675,0.277c0.243,0,0.491-0.092,0.675-0.277c0.379-0.377,0.379-0.979,0-1.359L26.887,24.813z"/>
</svg>
