<?xml version="1.0" encoding="utf-8"?>
<!-- Generator: Adobe Illustrator 16.0.0, SVG Export Plug-In . SVG Version: 6.00 Build 0)  -->
<!DOCTYPE svg PUBLIC "-//W3C//DTD SVG 1.1//EN" "http://www.w3.org/Graphics/SVG/1.1/DTD/svg11.dtd">
<svg version="1.1" id="Layer_1" xmlns="http://www.w3.org/2000/svg" xmlns:xlink="http://www.w3.org/1999/xlink" x="0px" y="0px"
	 width="35px" height="35px" viewBox="0 0 35 35" style="enable-background:new 0 0 35 35;" xml:space="preserve">
<style type="text/css">
<![CDATA[
	.st0{opacity:0.4;fill:none;stroke:#000000;stroke-width:0.4;stroke-miterlimit:10;}
]]>
</style>
<path class="st0" d="M26.549,5.125V1.848c0-0.904-0.735-1.636-1.638-1.636c-0.903,0-1.637,0.732-1.637,1.636v3.277
	c0,0.904,0.734,1.635,1.637,1.635C25.814,6.76,26.549,6.028,26.549,5.125z"/>
<path class="st0" d="M10.587,6.76c0.678,0,1.228-0.546,1.228-1.231V1.443c0-0.679-0.548-1.231-1.228-1.231H9.769
	c-0.677,0-1.228,0.547-1.228,1.231v4.084c0,0.681,0.548,1.232,1.228,1.232H10.587z"/>
<path class="st0" d="M1.385,3.486c-0.569,0-1.029,0.476-1.029,1.06v28.981c0,0.587,0.46,1.063,1.028,1.063h32.32
	c0.568,0,1.03-0.477,1.03-1.063V4.546c0-0.586-0.462-1.06-1.03-1.06h-5.52v3.063c0,1.028-1.1,1.848-2.457,1.848h-1.633
	c-1.362,0-2.457-0.827-2.457-1.848V3.486h-8.186v3.063c0,1.028-1.1,1.848-2.457,1.848H9.361C8,8.397,6.904,7.571,6.904,6.549V3.486
	H1.385z M11.815,24.404H6.904v-4.911h4.911V24.404z M11.815,30.75H6.904v-4.911h4.911V30.75z M11.815,17.856H6.904v-4.911h4.911
	V17.856z M20.057,24.404h-4.911v-4.911h4.911V24.404z M20.057,30.75h-4.911v-4.911h4.911V30.75z M20.057,17.856h-4.911v-4.911h4.911
	V17.856z M28.186,24.404h-4.911v-4.911h4.911V24.404z M28.186,30.75h-4.911v-4.911h4.911V30.75z M28.186,17.856h-4.911v-4.911h4.911
	V17.856z"/>
</svg>
