<?xml version="1.0" encoding="utf-8"?>
<!-- Generator: Adobe Illustrator 16.0.0, SVG Export Plug-In . SVG Version: 6.00 Build 0)  -->
<!DOCTYPE svg PUBLIC "-//W3C//DTD SVG 1.1//EN" "http://www.w3.org/Graphics/SVG/1.1/DTD/svg11.dtd">
<svg version="1.1" id="Layer_1" xmlns="http://www.w3.org/2000/svg" xmlns:xlink="http://www.w3.org/1999/xlink" x="0px" y="0px"
	 width="35px" height="35px" viewBox="0 0 35 35" enable-background="new 0 0 35 35" xml:space="preserve">
<g>
	<g>
		<g>
			<path fill="none" stroke="#333333" stroke-width="0.4" stroke-miterlimit="10" d="M1.179,29.246
				c-1.264,1.266-1.264,3.311,0,4.574c0.63,0.631,1.459,0.945,2.288,0.945c0.828,0,1.656-0.314,2.287-0.945l10.62-10.621
				l-4.575-4.57L1.179,29.246z"/>
			<polygon fill="none" stroke="#333333" stroke-width="0.4" stroke-miterlimit="10" points="27.719,9.563 32.348,7.172 
				34.768,2.492 32.508,0.234 27.831,2.658 25.432,7.279 19.807,12.911 22.092,15.195 			"/>
			<path fill="none" stroke="#333333" stroke-width="0.4" stroke-miterlimit="10" d="M28.73,21.838l-0.438-0.043
				c-0.786,0-1.535,0.162-2.232,0.42L12.785,8.939c0.258-0.699,0.42-1.447,0.42-2.236l-0.043-0.436
				c-0.228-3.366-3.001-6.033-6.425-6.033c-0.998,0-1.93,0.244-2.773,0.647l4.297,4.297c0.226,0.227,0.383,0.493,0.485,0.776
				c0.283,0.764,0.129,1.657-0.485,2.273C7.84,8.648,7.288,8.858,6.737,8.858c-0.254,0-0.507-0.056-0.749-0.146
				c-0.283-0.107-0.55-0.258-0.776-0.486L0.916,3.93C0.512,4.772,0.268,5.707,0.268,6.703c0,3.424,2.668,6.196,6.033,6.425
				l0.437,0.043c0.789,0,1.537-0.162,2.236-0.419l13.274,13.277c-0.256,0.699-0.416,1.447-0.416,2.236l0.046,0.436
				c0.226,3.369,2.997,6.033,6.421,6.033c0.995,0,1.932-0.24,2.771-0.646l-4.293-4.299c-0.228-0.225-0.385-0.494-0.491-0.773
				c-0.283-0.764-0.132-1.66,0.491-2.274c0.416-0.423,0.97-0.634,1.521-0.634c0.257,0,0.505,0.054,0.751,0.146
				c0.28,0.105,0.553,0.256,0.776,0.486l4.293,4.297c0.407-0.844,0.649-1.775,0.649-2.773C34.768,24.84,32.098,22.066,28.73,21.838z
				"/>
		</g>
	</g>
</g>
</svg>
