<?xml version="1.0" encoding="utf-8"?>
<!-- Generator: Adobe Illustrator 16.0.0, SVG Export Plug-In . SVG Version: 6.00 Build 0)  -->
<!DOCTYPE svg PUBLIC "-//W3C//DTD SVG 1.1//EN" "http://www.w3.org/Graphics/SVG/1.1/DTD/svg11.dtd">
<svg version="1.1" id="Layer_1" xmlns="http://www.w3.org/2000/svg" xmlns:xlink="http://www.w3.org/1999/xlink" x="0px" y="0px"
	 width="35px" height="35px" viewBox="0 0 35 35" enable-background="new 0 0 35 35" xml:space="preserve">
<path id="XMLID_481_" fill="none" stroke="#333333" stroke-width="0.4" stroke-miterlimit="10" d="M34.551,13.917
	c-0.625-1.927-2.693-2.98-4.621-2.354c-1.518,0.493-2.492,1.884-2.531,3.394l-2.615,0.85c0.363,0.72,0.621,1.502,0.759,2.326
	l2.608-0.851c0.922,1.2,2.527,1.749,4.049,1.257C34.123,17.912,35.18,15.844,34.551,13.917z"/>
<path id="XMLID_482_" fill="none" stroke="#333333" stroke-width="0.4" stroke-miterlimit="10" d="M18.723,11.399V8.654
	c1.424-0.505,2.443-1.863,2.443-3.459c0-2.025-1.643-3.667-3.667-3.667c-2.025,0-3.667,1.642-3.667,3.667
	c0,1.598,1.021,2.954,2.444,3.459v2.745c0.399-0.06,0.809-0.092,1.223-0.092C17.914,11.307,18.32,11.339,18.723,11.399z"/>
<path id="XMLID_483_" fill="none" stroke="#333333" stroke-width="0.4" stroke-miterlimit="10" d="M7.601,14.956
	c-0.04-1.51-1.015-2.901-2.534-3.394c-1.926-0.626-3.996,0.429-4.622,2.354c-0.625,1.927,0.429,3.995,2.355,4.621
	c1.518,0.492,3.125-0.059,4.044-1.257l2.612,0.851c0.135-0.824,0.394-1.606,0.757-2.326L7.601,14.956z"/>
<path id="XMLID_484_" fill="none" stroke="#333333" stroke-width="0.4" stroke-miterlimit="10" d="M10.159,27.482
	c-1.448-0.431-3.072,0.066-4.011,1.359c-1.19,1.639-0.827,3.932,0.812,5.125c1.639,1.188,3.933,0.825,5.123-0.814
	c0.938-1.288,0.911-2.989,0.054-4.233l1.615-2.224c-0.729-0.379-1.395-0.866-1.976-1.438L10.159,27.482z"/>
<path id="XMLID_486_" fill="none" stroke="#333333" stroke-width="0.4" stroke-miterlimit="10" d="M22.859,28.919
	c-0.854,1.244-0.883,2.942,0.056,4.233c1.19,1.641,3.483,2.004,5.124,0.813c1.639-1.192,2.003-3.487,0.811-5.125
	c-0.937-1.291-2.561-1.79-4.011-1.358l-1.618-2.228c-0.578,0.574-1.244,1.062-1.975,1.44L22.859,28.919z"/>
<circle id="XMLID_487_" fill="none" stroke="#333333" stroke-width="0.4" stroke-miterlimit="10" cx="17.5" cy="19.458" r="5.705"/>
</svg>
