<?xml version="1.0" encoding="utf-8"?>
<!-- Generator: Adobe Illustrator 16.0.0, SVG Export Plug-In . SVG Version: 6.00 Build 0)  -->
<!DOCTYPE svg PUBLIC "-//W3C//DTD SVG 1.1//EN" "http://www.w3.org/Graphics/SVG/1.1/DTD/svg11.dtd">
<svg version="1.1" id="Layer_1" xmlns="http://www.w3.org/2000/svg" xmlns:xlink="http://www.w3.org/1999/xlink" x="0px" y="0px"
	 width="35px" height="35px" viewBox="0 0 35 35" style="enable-background:new 0 0 35 35;" xml:space="preserve">
<style type="text/css">
<![CDATA[
	.st0{opacity:0.4;}
	.st1{fill:none;stroke:#000000;stroke-width:0.4;stroke-miterlimit:10;}
]]>
</style>
<g id="XMLID_22_" class="st0">
	<path id="XMLID_481_" class="st1" d="M34.551,13.917c-0.625-1.927-2.693-2.98-4.622-2.354c-1.517,0.493-2.492,1.884-2.531,3.394
		l-2.615,0.85c0.363,0.72,0.622,1.502,0.759,2.326l2.609-0.851c0.922,1.2,2.527,1.749,4.048,1.257
		C34.123,17.912,35.179,15.844,34.551,13.917z"/>
	<path id="XMLID_482_" class="st1" d="M18.722,11.399V8.654c1.424-0.505,2.444-1.863,2.444-3.459c0-2.025-1.643-3.667-3.667-3.667
		c-2.025,0-3.667,1.642-3.667,3.667c0,1.598,1.021,2.954,2.444,3.459v2.745c0.399-0.06,0.809-0.092,1.223-0.092
		C17.914,11.307,18.321,11.339,18.722,11.399z"/>
	<path id="XMLID_483_" class="st1" d="M7.601,14.956c-0.04-1.51-1.015-2.901-2.534-3.394c-1.926-0.626-3.996,0.429-4.622,2.354
		c-0.625,1.927,0.429,3.995,2.355,4.621c1.518,0.493,3.125-0.058,4.044-1.257l2.612,0.851c0.135-0.824,0.394-1.606,0.757-2.326
		L7.601,14.956z"/>
	<path id="XMLID_484_" class="st1" d="M10.159,27.483c-1.448-0.431-3.072,0.066-4.011,1.359c-1.19,1.638-0.827,3.931,0.812,5.125
		c1.639,1.188,3.933,0.825,5.123-0.814c0.938-1.289,0.911-2.99,0.054-4.234l1.615-2.223c-0.729-0.38-1.395-0.867-1.976-1.439
		L10.159,27.483z"/>
	<path id="XMLID_486_" class="st1" d="M22.86,28.919c-0.854,1.244-0.884,2.943,0.055,4.234c1.19,1.64,3.484,2.003,5.124,0.813
		c1.639-1.192,2.003-3.487,0.811-5.125c-0.937-1.291-2.561-1.79-4.011-1.359l-1.618-2.227c-0.579,0.574-1.244,1.062-1.975,1.441
		L22.86,28.919z"/>
	<circle id="XMLID_487_" class="st1" cx="17.5" cy="19.458" r="5.705"/>
</g>
</svg>
