<?xml version="1.0" encoding="utf-8"?>
<!-- Generator: Adobe Illustrator 16.0.0, SVG Export Plug-In . SVG Version: 6.00 Build 0)  -->
<!DOCTYPE svg PUBLIC "-//W3C//DTD SVG 1.1//EN" "http://www.w3.org/Graphics/SVG/1.1/DTD/svg11.dtd">
<svg version="1.1" id="Layer_1" xmlns="http://www.w3.org/2000/svg" xmlns:xlink="http://www.w3.org/1999/xlink" x="0px" y="0px"
	 width="35px" height="35px" viewBox="0 0 35 35" style="enable-background:new 0 0 35 35;" xml:space="preserve">
<style type="text/css">
<![CDATA[
	.st0{fill:#E12227;stroke:#E12227;stroke-width:0.5;stroke-miterlimit:10;}
	.st1{fill:#FFFFFF;}
	.st2{fill:#E12227;stroke:#FFFFFF;stroke-width:0.5;stroke-miterlimit:10;}
	.st3{fill:none;}
	.st4{fill:none;stroke:#FFFFFF;stroke-width:0.5;stroke-miterlimit:10;}
]]>
</style>
<g>
	<g>
		<g>
			<path class="st1" d="M28.945,0.438H6.054c-3.146,0-5.723,2.576-5.723,5.723v22.89c0,3.15,2.576,5.725,5.723,5.725h22.893
				c3.148,0,5.723-2.573,5.723-5.725V6.161C34.669,3.014,32.096,0.438,28.945,0.438L28.945,0.438z"/>
		</g>
	</g>
</g>
<circle class="st2" cx="27.159" cy="7.949" r="2.682"/>
<g>
	<path class="st4" d="M30.376,9.021c0,1.18-0.965,2.146-2.146,2.146h-2.146c-1.181,0-2.146-0.966-2.146-2.146V6.876
		c0-1.18,0.967-2.146,2.146-2.146h2.146c1.181,0,2.146,0.966,2.146,2.146V9.021z"/>
</g>
<g>
	<circle class="st2" cx="18.747" cy="17.297" r="7.293"/>
</g>
<g>
	<g>
		<path class="st3" d="M23.234,17.295c0,2.48-2.01,4.49-4.488,4.49c-2.478,0-4.487-2.01-4.487-4.49c0-2.477,2.01-4.487,4.487-4.487
			C21.227,12.808,23.234,14.818,23.234,17.295z"/>
	</g>
</g>
<line class="st0" x1="18.747" y1="10.631" x2="18.747" y2="0.438"/>
<polyline class="st0" points="23.565,12.739 29.116,12.739 34.67,12.739 "/>
<polyline class="st0" points="0.331,12.739 7.665,12.739 15,12.739 "/>
</svg>
