<?xml version="1.0" encoding="utf-8"?>
<!-- Generator: Adobe Illustrator 16.0.0, SVG Export Plug-In . SVG Version: 6.00 Build 0)  -->
<!DOCTYPE svg PUBLIC "-//W3C//DTD SVG 1.1//EN" "http://www.w3.org/Graphics/SVG/1.1/DTD/svg11.dtd">
<svg version="1.1" id="Layer_1" xmlns="http://www.w3.org/2000/svg" xmlns:xlink="http://www.w3.org/1999/xlink" x="0px" y="0px"
	 width="35px" height="35px" viewBox="0 0 35 35" style="enable-background:new 0 0 35 35;" xml:space="preserve">
<style type="text/css">
<![CDATA[
	.st0{fill:#FFFFFF;}
]]>
</style>
<g>
	<path class="st0" d="M16.978,25.304c2.944,2.231,8.332,0.881,10.658-1.115c3.351-2.877,4.901-8.709,4.408-13.327
		c-0.553-5.165-5.35-9.726-11.021-10.366C12.296-0.487,4.365,4.894,4.305,13.454c-0.028,4.028,1.262,6.566,4.776,7.959
		c2.399-2.399-0.449-3.958-0.735-6.665c-0.756-7.181,7.723-14.1,15.248-9.625c5.243,3.116,4.354,16.487-2.021,17.773
		c-1.271,0.252-2.861-0.146-3.49-0.741c-3.028-2.865,2.508-7.882,0.734-12.034c-1.539-3.596-5.952-0.716-6.43,2.405
		c-0.257,1.697,0.547,3.33,0.55,4.814c0.013,3.53-2.191,8.339-2.756,11.848c-0.216,1.365-0.411,4.166-0.089,5.599
		c-0.018,0.016-0.038,0.03-0.054,0.047h2.304c1.614-2.755,2.716-6.9,3.536-10.457C16.388,23.997,16.572,24.991,16.978,25.304z"/>
</g>
</svg>
