<?xml version="1.0" encoding="utf-8"?>
<!-- Generator: Adobe Illustrator 16.0.0, SVG Export Plug-In . SVG Version: 6.00 Build 0)  -->
<!DOCTYPE svg PUBLIC "-//W3C//DTD SVG 1.1//EN" "http://www.w3.org/Graphics/SVG/1.1/DTD/svg11.dtd">
<svg version="1.1" id="Layer_1" xmlns="http://www.w3.org/2000/svg" xmlns:xlink="http://www.w3.org/1999/xlink" x="0px" y="0px"
	 width="35px" height="35px" viewBox="0 0 35 35" style="enable-background:new 0 0 35 35;" xml:space="preserve">
<style type="text/css">
<![CDATA[
	.st0{fill:#FFFFFF;stroke:#FFFFFF;stroke-width:0.5;stroke-miterlimit:10;}
]]>
</style>
<path class="st0" d="M34.286,7.293c-1.221,0.542-2.535,0.909-3.912,1.073c1.408-0.844,2.488-2.179,2.997-3.77
	c-1.318,0.78-2.777,1.348-4.328,1.652c-1.243-1.324-3.014-2.151-4.975-2.151c-3.764,0-6.813,3.052-6.813,6.813
	c0,0.535,0.059,1.056,0.175,1.552C11.766,12.179,6.746,9.468,3.384,5.342c-0.586,1.009-0.921,2.18-0.921,3.428
	c0,2.364,1.202,4.449,3.031,5.671c-1.116-0.035-2.167-0.342-3.086-0.851c0,0.028,0,0.058,0,0.083c0,3.306,2.348,6.057,5.466,6.683
	c-0.571,0.158-1.174,0.24-1.796,0.24c-0.439,0-0.865-0.041-1.281-0.121c0.867,2.708,3.383,4.677,6.366,4.729
	c-2.333,1.831-5.271,2.918-8.465,2.918c-0.55,0-1.092-0.03-1.625-0.094c3.016,1.932,6.598,3.061,10.446,3.061
	c12.534,0,19.389-10.384,19.389-19.388c0-0.297-0.006-0.591-0.018-0.881C32.221,9.859,33.377,8.659,34.286,7.293z"/>
</svg>
